HIERARCHY
ROOT ui
{
	 OFFSET 0 0 0
	 CHANNELS 3 XPosition YPosition Z Position
	 EndSite
	 {
	 OFFSET 0 -1 0
	 }
}
ROOT li
{
	 OFFSET 0 0 0
	 CHANNELS 3 XPosition YPosition Z Position
	 EndSite
	 {
	 OFFSET 0 -1 0
	 }
}
ROOT ul
{
	 OFFSET 0 0 0
	 CHANNELS 3 XPosition YPosition Z Position
	 EndSite
	 {
	 OFFSET 0 -1 0
	 }
}
ROOT ll
{
	 OFFSET 0 0 0
	 CHANNELS 3 XPosition YPosition Z Position
	 EndSite
	 {
	 OFFSET 0 -1 0
	 }
}
ROOT tt
{
	 OFFSET 0 0 0
	 CHANNELS 3 XPosition YPosition Z Position
	 EndSite
	 {
	 OFFSET 0 -1 0
	 }
}
ROOT tb
{
	 OFFSET 0 0 0
	 CHANNELS 3 XPosition YPosition Z Position
	 EndSite
	 {
	 OFFSET 0 -1 0
	 }
}
ROOT td
{
	 OFFSET 0 0 0
	 CHANNELS 3 XPosition YPosition Z Position
	 EndSite
	 {
	 OFFSET 0 -1 0
	 }
}
ROOT v
{
	 OFFSET 0 0 0
	 CHANNELS 3 XPosition YPosition Z Position
	 EndSite
	 {
	 OFFSET 0 -1 0
	 }
}
ROOT bn
{
	 OFFSET 0 0 0
	 CHANNELS 3 XPosition YPosition Z Position
	 EndSite
	 {
	 OFFSET 0 -1 0
	 }
}
MOTION
Frames: 21
Frame Time: 0.002
-5.261150002479554E-4	-3.2887500524520874E-4	0		0.4680040893554688	-2.378233154296875	0		-1.0810162353515624	-0.02182354736328125	0		-0.7998504028320312	-2.420694580078125	0		1.25291455078125	-0.538710205078125	0		2.8587353515625	0.05434712982177734	0		4.34105908203125	0.06232875442504883	0		5.59377001953125	0.09603438568115234	0		-0.2690421447753906	5.8327880859375	0		
-6.235489845275878E-4	-4.2467600107192995E-4	0		0.4590869140625	-2.370174560546875	0		-1.08111328125	-0.021941892623901366	0		-0.7300359497070312	-2.429938720703125	0		1.2497802734375	-0.5417308959960937	0		2.863522705078125	0.047230987548828124	0		4.325865234375	0.05656707000732422	0		5.58954150390625	0.08812108612060547	0		-0.2834212951660156	5.82291455078125	0		
-7.282860279083251E-4	-5.220010280609131E-4	0		0.467904296875	-2.378406005859375	0		-1.081217529296875	-0.022063192367553712	0		-0.7999483642578125	-2.420922119140625	0		1.252735595703125	-0.538849365234375	0		2.869302978515625	0.04010116577148438	0		4.3367578125	0.05638797760009766	0		5.5894345703125	0.08814780426025391	0		-0.26949545288085935	5.83258349609375	0		
-8.39805006980896E-4	-6.188759803771972E-4	0		0.4698803405761719	-2.3765244140625	0		-1.0813284912109375	-0.022185302734375	0		-0.7640564575195312	-2.4246181640625	0		1.2585390625	-0.5450130004882813	0		2.85841796875	0.05424701309204102	0		4.33285546875	0.06945526885986328	0		5.59344970703125	0.09611589813232421	0		-0.26974322509765625	5.83247998046875	0		
0.002090501070022583	0.002238027095794678	0		0.4449043884277344	-2.371205322265625	0		-1.0733338623046875	-0.015435808181762696	0		-0.7939661254882813	-2.415248779296875	0		1.2614986572265625	-0.5411255493164062	0		2.867265625	0.05207754516601563	0		4.335751953125	0.07041800689697265	0		5.5982001953125	0.08807830047607422	0		-0.27000296020507814	5.83237939453125	0		
-0.0029515480995178224	0.007227939128875732	0		0.4957057189941406	-2.380103515625	0		-1.081568115234375	-0.022423166275024414	0		-0.739099853515625	-2.4202431640625	0		1.249374755859375	-0.541990478515625	0		2.884138916015625	0.05178633499145508	0		4.32951513671875	0.06353471374511718	0		5.5773994140625	0.10846462249755859	0		-0.2844320068359375	5.8225087890625	0		
-0.0012082120180130006	-8.874509930610657E-4	0		0.4396627197265625	-2.378275390625	0		-1.0816953125	-0.02253531074523926	0		-0.7642421875	-2.424944091796875	0		1.2413101806640625	-0.5389143676757813	0		2.862932373046875	0.04711452102661133	0		4.3362724609375	0.05645073318481445	0		5.59310595703125	0.09826869201660156	0		-0.2705512390136719	5.83219140625	0		
-0.0013395190238952638	-9.654290080070495E-4	0		0.4655423889160156	-2.381758544921875	0		-1.0818260498046874	-0.02264165115356445	0		-0.7643098754882812	-2.425042236328125	0		1.2381292724609374	-0.5429111328125	0		2.8627998046875	0.04711172485351563	0		4.32925244140625	0.06359796142578125	0		5.5888125	0.08840299224853515	0		-0.2698518371582031	5.83109033203125	0		
-0.0014730260372161866	-0.00103690505027771	0		0.4426028442382812	-2.373450439453125	0		-1.0691207275390624	-0.03294854354858399	0		-0.7962630615234375	-2.41762255859375	0		1.2549278564453126	-0.5482213134765626	0		2.881598388671875	0.04281232833862305	0		4.32911767578125	0.06364101791381836	0		5.59280419921875	0.09641429138183594	0		-0.2540135498046875	5.83875439453125	0		
0.004488077163696289	0.004801712989807129	0		0.4974762268066406	-2.377382080078125	0		-1.0739815673828126	-0.015963584899902343	0		-0.7943018798828125	-2.415740234375	0		1.2548082275390624	-0.5482529907226562	0		2.86581689453125	0.06507633209228515	0		4.3320771484375	0.06964144134521484	0		5.5885400390625	0.08856160736083984	0		-0.25626889038085937	5.84071484375	0		
-0.0017399450540542603	-0.0011594330072402955	0		0.44245904541015624	-2.3735498046875	0		-1.0822247314453124	-0.02292029571533203	0		-0.7604570922851562	-2.4213603515625	0		1.2436748046875	-0.5491029663085938	0		2.8623955078125	0.047142082214355466	0		4.33086279296875	0.0647111587524414	0		5.58840478515625	0.08864688873291016	0		-0.2707091064453125	5.83087548828125	0		
-0.0018702019453048706	-0.0012104719877243041	0		0.4932522277832031	-2.382401611328125	0		-1.0823544921875	-0.022997472763061525	0		-0.772431640625	-2.4152392578125	0		1.2435577392578125	-0.5491239013671875	0		2.86226416015625	0.04716033172607422	0		4.319732421875	0.06494019317626953	0		5.58659130859375	0.10876041412353515	0		-0.2861219482421875	5.8220576171875	0		
-0.001996279001235962	-0.001254951000213623	0		0.4392332458496094	-2.378576416015625	0		-1.0824801025390625	-0.023065784454345702	0		-0.7646646118164062	-2.4254267578125	0		1.240396484375	-0.5520927734375	0		2.862136962890625	0.04717902755737305	0		4.3354755859375	0.05673747253417969	0		5.58814453125	0.08880991363525391	0		-0.4045524597167969	5.81188623046875	0		
9.309930205345154E-4	0.0016590280532836914	0		0.46715606689453126	-2.37905078125	0		-1.06976025390625	-0.033330158233642576	0		-0.7945905151367187	-2.41600390625	0		1.2044188232421875	-0.5435354614257812	0		2.855334716796875	0.06730564880371094	0		4.32259423828125	0.0719888153076172	0		5.597021484375	0.08873796844482422	0		-0.2714689636230469	5.83072412109375	0		
-0.004100817203521729	0.006706322193145752	0		0.44419879150390623	-2.3717099609375	0		-1.0786480712890625	-0.01923872947692871	0		-0.7587133178710938	-2.4196201171875	0		1.2452952880859376	-0.5451971435546875	0		2.8619033203125	0.04721419525146484	0		4.3344638671875	0.070840576171875	0		5.59622607421875	0.10881514739990235	0		-0.27266400146484376	5.83170361328125	0		
0.022651607513427735	-0.0027463109493255614	0		0.46701885986328123	-2.3790927734375	0		-1.0828121337890626	-0.023216331481933594	0		-0.7967579956054688	-2.418054443359375	0		1.2372347412109375	-0.5430774536132813	0		2.86508642578125	0.06518147277832032	0		4.33436181640625	0.07087961578369141	0		5.6009638671875	0.09879493713378906	0		-0.2860249938964844	5.8208818359375	0		
-0.0024191091060638426	-0.001370479941368103	0		0.46696029663085936	-2.379107177734375	0		-1.0869486083984374	-0.02618726921081543	0		-0.737823486328125	-2.419020263671875	0		1.2310419921875	-0.5499857788085938	0		2.856822509765625	0.0543266716003418	0		4.33017626953125	0.06498005676269532	0		5.59603173828125	0.10892581176757812	0		-0.2730183410644531	5.83164990234375	0		
-0.005560687065124512	-0.005339057922363282	0		0.4648620300292969	-2.382086181640625	0		-1.08702685546875	-0.026216445922851564	0		-0.7988980712890625	-2.4200791015625	0		1.2429840087890625	-0.54917822265625	0		2.8567431640625	0.054343280792236326	0		4.32808154296875	0.06404557037353516	0		5.59595166015625	0.1089742202758789	0		-0.25704000854492187	5.8393759765625	0		
4.8059400916099546E-4	0.0015519369840621949	0		0.4497720947265625	-2.38485693359375	0		-1.0702083740234376	-0.033508869171142576	0		-0.7480591430664062	-2.42790673828125	0		1.2429208984375	-0.5491785888671875	0		2.875608154296875	0.05005929565429688	0		4.32623388671875	0.07810675048828125	0		5.61067431640625	0.09578276824951172	0		-0.25618466186523436	5.8383447265625	0		
4.2061901092529296E-4	0.0015422500371932984	0		0.4439395751953125	-2.371769287109375	0		-1.0621583251953124	-0.026655426025390627	0		-0.7928864135742187	-2.414212890625	0		1.2400242919921876	-0.5391310424804687	0		2.85889794921875	0.07234114837646484	0		4.33815576171875	0.07694564056396484	0		5.600662109375	0.09898046875	0		-0.27143670654296875	5.82957080078125	0		
3.687959909439087E-4	0.0015360729694366454	0		0.46679110717773437	-2.379135009765625	0		-1.0831597900390626	-0.023337549209594726	0		-0.7590043334960938	-2.41976171875	0		1.2308035888671875	-0.5499848022460937	0		2.856561279296875	0.05438917922973633	0		4.318916015625	0.06527220153808594	0		5.60060986328125	0.09901414489746094	0		-0.2725140686035156	5.83057861328125	0		
